<svg width="24" height="24" viewBox="0 0 32 32" fill="none" xmlns="http://www.w3.org/2000/svg">
<g clip-path="url(#clip0_209_1136)">
<path d="M2.59652 16.025C2.68696 15.8888 2.80746 15.7708 2.94525 15.6836C9.95998 11.247 17.3956 7.88413 24.9317 5.7399C25.0619 5.7028 25.1913 5.69594 25.3092 5.7199C25.4272 5.74385 25.5303 5.79793 25.61 5.87766C25.6898 5.95739 25.7438 6.06049 25.7678 6.17844C25.7917 6.29639 25.7849 6.42579 25.7478 6.55597C23.6032 14.0919 20.2401 21.5273 15.8034 28.5418C15.7162 28.6794 15.5984 28.7998 15.4622 28.8901C15.3261 28.9805 15.1768 29.0375 15.0302 29.0551C14.8835 29.0727 14.7449 29.0502 14.6291 28.9901C14.5132 28.9299 14.4244 28.8344 14.3721 28.7135L11.1972 21.2334C10.8803 20.6759 10.6431 20.5054 10.1757 20.307L2.77422 17.1156C2.65308 17.0634 2.55727 16.9747 2.49694 16.8588C2.43661 16.743 2.41401 16.6043 2.43154 16.4575C2.44907 16.3107 2.50608 16.1613 2.59652 16.025Z" fill="black"/>
</g>
<defs>
<clipPath id="clip0_209_1136">
<rect width="32" height="32" fill="white"/>
</clipPath>
</defs>
</svg>
